<svg xmlns="http://www.w3.org/2000/svg" viewBox="0 0 800 200" width="800" height="200">
  <path d="M0,100 Q50,50 100,100 T200,100 T300,100 T400,100 T500,100 T600,100 T700,100 T800,100" fill="none" stroke="#4a6fa5" stroke-width="4"/>
  <path d="M0,100 Q50,20 100,100 T200,100 T300,100 T400,100 T500,100 T600,100 T700,100 T800,100" fill="none" stroke="#6c8cbb" stroke-width="3" opacity="0.8"/>
  <path d="M0,100 Q50,80 100,100 T200,100 T300,100 T400,100 T500,100 T600,100 T700,100 T800,100" fill="none" stroke="#8eaad1" stroke-width="2" opacity="0.6"/>
</svg> 