<svg xmlns="http://www.w3.org/2000/svg" viewBox="0 0 400 300" width="400" height="300">
  <!-- Fond stylisé -->
  <rect x="0" y="0" width="400" height="300" fill="#f8f9fa" rx="8" ry="8"/>
  
  <!-- Icône de microphone avec cercle -->
  <circle cx="200" cy="130" r="70" fill="#edf2f7" stroke="#4a6fa5" stroke-width="2"/>
  <path d="M200 80 v-10 M175 130 h50 M200 180 v10" stroke="#4a6fa5" stroke-width="2" fill="none"/>
  
  <path d="M200 80a30 45 0 0 0-20 45 v20 a20 20 0 0 0 40 0 v-20 a30 45 0 0 0-20-45z" fill="#4a6fa5" stroke="#4a6fa5" stroke-width="2"/>
  
  <!-- Ondes sonores vides -->
  <path d="M140 130 Q130 115 140 100 Q150 115 140 130" stroke="#8eaad1" stroke-width="2" fill="none" opacity="0.5"/>
  <path d="M140 130 Q120 100 140 70 Q160 100 140 130" stroke="#8eaad1" stroke-width="2" fill="none" opacity="0.3"/>
  
  <path d="M260 130 Q270 115 260 100 Q250 115 260 130" stroke="#8eaad1" stroke-width="2" fill="none" opacity="0.5"/>
  <path d="M260 130 Q280 100 260 70 Q240 100 260 130" stroke="#8eaad1" stroke-width="2" fill="none" opacity="0.3"/>
  
  <!-- Message -->
  <text x="200" y="230" font-family="Arial" font-size="16" fill="#4a6fa5" text-anchor="middle">Aucun enregistrement trouvé</text>
</svg> 